<?xml version="1.0" standalone="no"?>
<!DOCTYPE svg PUBLIC "-//W3C//DTD SVG 20010904//EN"
 "http://www.w3.org/TR/2001/REC-SVG-20010904/DTD/svg10.dtd">
<svg version="1.0" xmlns="http://www.w3.org/2000/svg"
 width="60.000000pt" height="60.000000pt" viewBox="0 0 60.000000 60.000000"
 preserveAspectRatio="xMidYMid meet">

<g transform="translate(0.000000,60.000000) scale(0.100000,-0.100000)"
fill="#000000" stroke="none">
<path d="M203 582 c-251 -90 -272 -432 -35 -549 81 -40 183 -40 264 0 107 53
163 144 163 267 0 85 -21 142 -74 203 -72 81 -213 117 -318 79z m171 -54 c25
-8 60 -31 91 -63 l50 -50 -42 -3 c-38 -3 -46 -8 -78 -54 -21 -28 -40 -47 -45
-42 -5 5 -10 29 -12 54 l-3 45 -42 3 c-33 2 -43 0 -43 -12 0 -8 5 -18 10 -21
15 -9 12 -51 -4 -64 -11 -9 -18 -6 -35 15 -12 15 -21 30 -21 35 0 19 -34 39
-66 39 -19 0 -34 -3 -34 -6 0 -13 51 -107 76 -140 36 -46 72 -71 116 -79 34
-6 38 -5 53 25 l17 32 21 -20 c31 -28 62 -42 91 -42 37 0 32 -13 -18 -57 -101
-89 -225 -84 -321 12 -102 101 -102 229 0 330 70 71 146 91 239 63z m166 -224
c0 -23 -5 -55 -11 -72 l-11 -32 -34 41 -34 41 26 41 c14 23 28 51 32 62 5 18
7 17 18 -10 7 -17 13 -48 14 -71z"/>
</g>
</svg>
